<svg width="1452" height="184" viewBox="0 0 1452 184" fill="none" xmlns="http://www.w3.org/2000/svg">
<path d="M272.25 158.07C236.442 158.07 217.308 184 181.5 184C145.692 184 126.558 158.07 90.75 158.07C54.9421 158.07 0 184 0 184V0H1452V184C1452 184 1397.06 158.07 1361.25 158.07C1325.44 158.07 1306.31 184 1270.5 184C1234.69 184 1215.56 158.07 1179.75 158.07C1143.94 158.07 1124.81 184 1089 184C1053.19 184 1034.06 158.07 998.25 158.07C962.442 158.07 943.308 184 907.5 184C871.692 184 852.558 158.07 816.75 158.07C780.942 158.07 761.808 184 726 184C690.192 184 671.058 158.07 635.25 158.07C599.442 158.07 580.308 184 544.5 184C508.692 184 489.558 158.07 453.75 158.07C417.942 158.07 398.808 184 363 184C327.192 184 308.058 158.07 272.25 158.07Z" fill="#FFBDAA"/>
</svg>
