<svg width="1452" height="52" viewBox="0 0 1452 52" fill="none" xmlns="http://www.w3.org/2000/svg">
<path d="M272.25 44.6721C236.442 44.6721 217.308 52 181.5 52C145.692 52 126.558 44.6721 90.75 44.6721C54.9421 44.6721 0 52 0 52V0H1452V52C1452 52 1397.06 44.6721 1361.25 44.6721C1325.44 44.6721 1306.31 52 1270.5 52C1234.69 52 1215.56 44.6721 1179.75 44.6721C1143.94 44.6721 1124.81 52 1089 52C1053.19 52 1034.06 44.6721 998.25 44.6721C962.442 44.6721 943.308 52 907.5 52C871.692 52 852.558 44.6721 816.75 44.6721C780.942 44.6721 761.808 52 726 52C690.192 52 671.058 44.6721 635.25 44.6721C599.442 44.6721 580.308 52 544.5 52C508.692 52 489.558 44.6721 453.75 44.6721C417.942 44.6721 398.808 52 363 52C327.192 52 308.058 44.6721 272.25 44.6721Z" fill="#FFBDAA"/>
</svg>
