<svg width="220" height="144" viewBox="0 0 220 144" fill="none" xmlns="http://www.w3.org/2000/svg">
<ellipse cx="122.225" cy="72" rx="82.5089" ry="71" stroke="black" stroke-width="2"/>
<ellipse cx="117.137" cy="72" rx="82.5089" ry="71" stroke="black" stroke-width="2"/>
<ellipse cx="112.048" cy="72" rx="82.5089" ry="71" stroke="black" stroke-width="2"/>
<path d="M35.5 110.471C33.9734 110.346 33.1737 110.159 31.6471 109.721C30.1932 109.22 29.3209 108.845 28.2305 108.157C25.1773 106.093 24.4503 102.652 26.4131 99.7119C27.3581 98.3982 29.6117 96.8344 31.9379 95.8335C34.0461 94.9577 37.7535 94.0819 40.5886 93.8317L41.2429 93.7066L41.3156 89.9533C41.461 81.8212 41.6064 75.6282 41.6791 73.689L41.7518 71.6872L41.3883 71.5621C41.1702 71.437 41.0248 71.3745 41.0248 71.3119C41.0248 71.1868 41.1702 70.311 41.461 69.3101C41.9698 67.1833 41.9698 67.0582 41.6791 67.1207L40.2979 67.3084C38.2624 67.6837 34.0461 68.8097 31.7925 69.6229C24.8138 72.1877 20.0159 75.8159 18.9255 79.3189C18.6347 80.2573 18.7074 81.7586 19.0709 82.6344C19.7252 84.1982 20.961 85.074 23.2872 85.7621C24.7411 86.1375 25.1773 86.3251 25.1773 86.5753C25.1773 86.9507 22.9237 86.5128 21.1064 85.7621C18.562 84.6987 16.9627 82.3841 17.1808 80.1322C17.3262 79.0062 17.4716 78.5057 18.0532 77.4423C20.6702 72.7507 28.3032 68.6846 38.3351 66.5577C41.0248 65.9947 43.4237 65.6819 45.6773 65.7445C46.8404 65.7445 48.0762 65.8071 49.312 66.0573C50.2571 66.2449 52.0745 66.9956 52.8741 67.5586C54.4734 68.5595 55.2003 70.311 54.7642 72.0626C54.2553 74.252 52.1471 76.504 48.5124 78.8811L46.9858 79.8819C46.9131 79.8819 47.7127 79.9445 48.7305 79.9445C50.2571 79.9445 50.8386 79.9445 52.0745 80.1947C54.1826 80.6326 54.9096 80.8828 57.1631 82.0714C57.9627 82.5093 59.6347 83.948 60.289 84.7612C60.8705 85.5119 61.4521 86.7004 61.8156 87.7639C62.0337 88.5771 62.0337 89.015 62.0337 90.5163L62.1064 92.2678L62.5425 92.2053C63.633 92.0802 65.8138 91.3921 67.4858 90.6414L68.5762 90.2661C68.9397 90.141 69.3032 90.3286 69.3032 90.5789C69.3032 90.8291 68.5035 91.4546 67.6312 91.8925C66.8315 92.3304 64.4326 93.0185 62.8333 93.2687L61.8156 93.4564L61.4521 94.7075C59.562 101.589 53.3103 107.031 44.5142 109.533C41.7518 110.346 38.1897 110.722 35.5 110.471ZM26.922 103.027C26.7039 106.093 29.1028 108.47 33.3191 109.345C34.9911 109.721 36.445 109.783 38.6259 109.596C41.0248 109.408 44.2961 108.595 46.6223 107.594C52.8741 104.904 57.3085 100.713 59.2713 95.5833C59.562 94.8326 59.7801 94.0819 59.7801 93.9568C59.7801 93.8317 59.7801 93.7692 59.4166 93.7692L58.9805 93.8317C57.7447 93.8943 53.8191 94.0819 50.6205 94.1445C47.6401 94.2071 44.6596 94.3322 43.6418 94.4573L43.133 94.5198V95.5207C43.133 97.2723 43.351 101.651 43.4964 102.152C43.5691 102.589 43.5691 102.652 43.351 102.777C43.2784 102.84 42.9149 102.902 42.6241 102.902C42.1152 102.84 42.0425 102.777 41.8971 102.589C41.6791 102.152 41.5337 100.9 41.3883 97.585C41.3156 96.0212 41.1702 94.7701 41.1702 94.7075C41.0248 94.5824 36.2269 95.5207 34.7003 96.0212C29.9025 97.6476 27.2127 100.087 26.922 103.027ZM43.0603 93.5815L43.6418 93.519L45.023 93.3938C45.3865 93.3313 47.422 93.2687 49.4574 93.2062C53.8191 93.0811 57.5993 92.956 59.0532 92.7683C60.0709 92.6432 60.0709 92.6432 60.2163 92.3304C60.289 92.1427 60.289 91.0793 60.3617 89.9533C60.3617 88.0767 60.289 87.7639 60.0709 87.0132C59.1986 84.511 57.1631 82.5718 54.328 81.5709C52.9468 81.133 51.3475 80.8828 49.6028 80.8203C47.8581 80.8203 46.1135 81.0705 44.4415 81.5084L43.4237 81.7586L43.2784 84.0106L43.133 89.8908L43.0603 93.5815ZM43.351 80.3824L43.8599 80.0696C44.1507 79.9445 44.9503 79.5066 45.5319 79.1313C49.8936 76.504 52.3652 74.1269 53.1649 71.8749C53.601 70.4987 53.3103 69.0599 52.4379 68.2467C51.7837 67.6212 50.1117 67.0582 48.5124 66.8705C48.0035 66.8079 47.0585 66.7454 46.1135 66.7454C45.1684 66.7454 44.2961 66.7454 43.9326 66.8079L43.4964 66.8705V68.2467C43.4964 68.9348 43.4964 72 43.4237 74.9401L43.351 80.3824Z" stroke="#FCE9E4" stroke-width="33"/>
<path d="M80.3852 89.2652C80.676 89.4529 80.676 89.5154 79.5128 90.8916C77.9863 92.5806 76.1689 93.7692 74.1334 94.2071C72.8976 94.4573 71.0075 94.4573 69.9171 94.2071C68.0997 93.7066 67.3001 92.8308 67.4455 91.3921C67.6636 89.4529 69.9171 87.8264 72.098 87.7639C72.3887 87.7013 72.7522 87.7639 73.043 87.8264C73.4792 87.889 73.9153 88.0141 74.1334 88.2643C74.5696 88.5145 74.5696 88.6397 74.5696 89.0775C74.5696 90.5163 71.8799 92.0176 69.7717 91.83L69.1175 91.7049L69.1902 92.2053C69.3355 93.2687 69.8444 93.5815 71.7345 93.5815C72.7522 93.519 73.1884 93.519 73.8426 93.2687C75.2965 92.8308 76.0235 92.393 77.9863 90.7665C78.9313 89.8908 79.8763 89.2026 79.949 89.2026C80.0944 89.2026 80.2398 89.2027 80.3852 89.2652ZM69.5536 91.0167C69.7717 91.1419 70.426 91.0167 71.2256 90.704C72.2433 90.2661 73.3338 89.0775 73.043 88.6397C72.9703 88.5771 72.8249 88.5771 72.6795 88.5771C72.3887 88.5771 71.9526 88.6397 71.5164 88.8273C70.8621 89.1401 69.8444 89.9533 69.5536 90.5163C69.3355 90.8291 69.3355 90.8916 69.5536 91.0167Z" stroke="#FCE9E4" stroke-width="33"/>
<path d="M95.2973 89.015C95.8062 89.1401 95.8062 89.4529 95.1519 90.3912C94.8612 90.8916 94.4977 91.3295 94.1342 91.83C93.4799 92.5181 91.6626 94.0194 91.1537 94.2071C90.7175 94.4573 89.9906 94.5198 89.409 94.3947C88.6821 94.2071 88.0278 93.8943 87.6643 93.519C87.2282 93.0185 86.8647 92.2678 86.8647 91.8925C86.8647 91.7049 86.792 91.5172 86.792 91.5172C86.7193 91.4546 86.3558 91.7674 85.9197 92.1427C85.12 92.8934 83.8115 93.6441 82.9392 93.8943C81.7034 94.2696 79.9587 93.9568 79.3044 93.2687C79.0863 92.956 79.0136 92.7057 78.9409 92.2678C78.8682 90.9542 79.3771 89.7031 80.5402 88.7648C81.1218 88.2643 81.4126 88.0767 81.9214 87.9515C83.5207 87.5762 85.7016 87.9515 85.847 88.6397C85.847 88.8899 85.847 88.8899 85.4108 88.8273L84.3931 88.7022C83.6661 88.5771 82.8665 88.8273 82.2122 89.2652C81.1218 90.141 80.3948 92.0176 80.7583 92.956C80.9764 93.3313 81.4126 93.3313 82.3576 92.8934C83.3753 92.4555 84.3931 91.7049 85.2654 90.7665C85.9924 89.9533 87.0828 88.3894 87.2282 87.8264C87.3009 87.5137 88.0278 87.5137 88.5367 87.8264C88.9002 88.0767 88.9002 88.0141 88.6094 89.3278C88.2459 90.8916 88.5367 92.8934 89.1909 93.3938C89.4817 93.6441 89.5544 93.6441 89.9179 93.519C90.7902 93.2062 92.3895 91.83 93.9161 89.9533C94.7158 89.0775 94.9338 88.9524 95.2973 89.015Z" stroke="#FCE9E4" stroke-width="33"/>
<path d="M129.421 110.471C127.895 110.346 127.095 110.159 125.569 109.721C124.115 109.22 123.242 108.845 122.152 108.157C119.099 106.093 118.372 102.652 120.335 99.7119C121.28 98.3982 123.533 96.8344 125.859 95.8335C127.968 94.9577 131.675 94.0819 134.51 93.8317L135.164 93.7066L135.237 89.9533C135.382 81.8212 135.528 75.6282 135.6 73.689L135.673 71.6872L135.31 71.5621C135.092 71.437 134.946 71.3745 134.946 71.3119C134.946 71.1868 135.092 70.311 135.382 69.3101C135.891 67.1833 135.891 67.0582 135.6 67.1207L134.219 67.3084C132.184 67.6837 127.967 68.8097 125.714 69.6229C118.735 72.1877 113.937 75.8159 112.847 79.3189C112.556 80.2573 112.629 81.7586 112.992 82.6344C113.647 84.1982 114.882 85.074 117.209 85.7621C118.663 86.1375 119.099 86.3251 119.099 86.5753C119.099 86.9507 116.845 86.5128 115.028 85.7621C112.483 84.6987 110.884 82.3841 111.102 80.1322C111.248 79.0062 111.393 78.5057 111.975 77.4423C114.592 72.7507 122.225 68.6846 132.256 66.5577C134.946 65.9947 137.345 65.6819 139.599 65.7445C140.762 65.7445 141.998 65.8071 143.233 66.0573C144.178 66.2449 145.996 66.9956 146.796 67.5586C148.395 68.5595 149.122 70.311 148.686 72.0626C148.177 74.252 146.069 76.504 142.434 78.8811L140.907 79.8819C140.835 79.8819 141.634 79.9445 142.652 79.9445C144.178 79.9445 144.76 79.9445 145.996 80.1947C148.104 80.6326 148.831 80.8828 151.085 82.0714C151.884 82.5093 153.556 83.948 154.21 84.7612C154.792 85.5119 155.374 86.7004 155.737 87.7639C155.955 88.5771 155.955 89.015 155.955 90.5163L156.028 92.2678L156.464 92.2053C157.554 92.0802 159.735 91.3921 161.407 90.6414L162.498 90.2661C162.861 90.141 163.225 90.3286 163.225 90.5789C163.225 90.8291 162.425 91.4546 161.553 91.8925C160.753 92.3304 158.354 93.0185 156.755 93.2687L155.737 93.4564L155.374 94.7075C153.483 101.589 147.232 107.031 138.436 109.533C135.673 110.346 132.111 110.722 129.421 110.471ZM120.843 103.027C120.625 106.093 123.024 108.47 127.241 109.345C128.913 109.721 130.366 109.783 132.547 109.596C134.946 109.408 138.217 108.595 140.544 107.594C146.796 104.904 151.23 100.713 153.193 95.5833C153.483 94.8326 153.702 94.0819 153.702 93.9568C153.702 93.8317 153.702 93.7692 153.338 93.7692L152.902 93.8317C151.666 93.8943 147.741 94.0819 144.542 94.1445C141.561 94.2071 138.581 94.3322 137.563 94.4573L137.054 94.5198V95.5207C137.054 97.2723 137.272 101.651 137.418 102.152C137.491 102.589 137.491 102.652 137.272 102.777C137.2 102.84 136.836 102.902 136.546 102.902C136.037 102.84 135.964 102.777 135.819 102.589C135.6 102.152 135.455 100.9 135.31 97.585C135.237 96.0212 135.092 94.7701 135.092 94.7075C134.946 94.5824 130.148 95.5207 128.622 96.0212C123.824 97.6476 121.134 100.087 120.843 103.027ZM136.982 93.5815L137.563 93.519L138.944 93.3938C139.308 93.3313 141.343 93.2687 143.379 93.2062C147.741 93.0811 151.521 92.956 152.975 92.7683C153.992 92.6432 153.992 92.6432 154.138 92.3304C154.21 92.1427 154.21 91.0793 154.283 89.9533C154.283 88.0767 154.21 87.7639 153.992 87.0132C153.12 84.511 151.085 82.5718 148.249 81.5709C146.868 81.133 145.269 80.8828 143.524 80.8203C141.78 80.8203 140.035 81.0705 138.363 81.5084L137.345 81.7586L137.2 84.0106L137.054 89.8908L136.982 93.5815ZM137.272 80.3824L137.781 80.0696C138.072 79.9445 138.872 79.5066 139.453 79.1313C143.815 76.504 146.287 74.1269 147.086 71.8749C147.522 70.4987 147.232 69.0599 146.359 68.2467C145.705 67.6212 144.033 67.0582 142.434 66.8705C141.925 66.8079 140.98 66.7454 140.035 66.7454C139.09 66.7454 138.217 66.7454 137.854 66.8079L137.418 66.8705V68.2467C137.418 68.9348 137.418 72 137.345 74.9401L137.272 80.3824Z" stroke="#FCE9E4" stroke-width="33"/>
<path d="M174.307 89.4529C174.525 89.578 174.525 89.578 174.307 89.8282C173.943 90.0784 172.271 90.8291 171.326 91.0167C170.963 91.1419 170.236 91.267 169.654 91.3295C168.346 91.5797 168.2 91.6423 168.055 92.2053C167.691 93.2062 166.964 94.0194 166.092 94.3947C165.438 94.7075 163.984 94.7701 163.257 94.5824C161.803 94.0819 161.003 92.3304 161.512 90.3912C161.658 90.0784 161.803 89.6405 161.948 89.5154C162.167 89.2652 162.385 88.9524 162.53 88.7022C162.966 87.889 163.693 87.5137 164.856 87.5762C167.11 87.5762 168.418 88.5771 168.418 90.2661V90.704L169.073 90.6414C169.872 90.5163 170.89 90.2035 172.198 89.7031C173.289 89.2652 173.87 89.2027 174.307 89.4529ZM163.184 90.6414C163.039 90.6414 163.112 92.3304 163.257 92.8934C163.402 93.1436 163.62 93.519 163.766 93.7066C164.057 93.9568 164.129 93.9568 164.493 93.9568C164.784 93.8943 165.002 93.8317 165.22 93.7066C165.656 93.4564 166.165 92.8308 166.456 92.2053L166.674 91.6423L166.092 91.5797C165.147 91.4546 163.911 91.1419 163.548 90.8916C163.402 90.7665 163.184 90.6414 163.184 90.6414ZM163.984 89.2652C163.911 89.578 163.984 89.7031 164.275 90.0159C164.638 90.4538 165.22 90.704 165.874 90.7665C166.674 90.8916 166.746 90.8916 166.819 90.704C166.964 90.4538 166.819 89.3278 166.601 89.015C166.31 88.6397 165.801 88.3269 165.292 88.2643H165.074C164.565 88.2643 164.057 88.7022 163.984 89.2652Z" stroke="#FCE9E4" stroke-width="33"/>
<path d="M181.452 89.2026C182.107 89.015 182.179 89.2652 181.816 90.141C181.089 91.7674 179.708 93.5815 178.69 94.3322C177.599 95.0203 176.146 95.3956 175.201 95.0828C174.619 94.8952 173.892 94.2696 173.529 93.6441C173.165 92.8934 172.802 91.2044 172.656 89.1401C172.365 85.1991 173.092 78.8185 174.183 75.941C174.91 74.0643 175.637 73.126 176.436 73.126C177.527 73.126 178.399 73.7515 178.835 74.815C179.344 76.1912 179.126 79.1313 178.326 81.8212C177.309 85.0115 175.855 88.1392 174.837 89.0775L174.401 89.4529L174.546 90.5163C174.692 91.5797 175.055 93.0811 175.346 93.519C175.637 94.0194 176.218 94.4573 176.582 94.3322C177.454 94.1445 178.981 92.6432 180.362 90.5163C180.943 89.5154 181.234 89.2026 181.452 89.2026ZM174.401 87.2634C174.474 87.2634 174.692 86.8881 174.982 86.3877C177.236 81.8212 178.254 76.1912 177.163 74.3771C177.091 74.252 177.018 74.1894 176.945 74.1269C176.873 74.1269 176.727 74.252 176.509 74.6273C175.419 76.4414 174.692 79.8819 174.401 84.4485C174.255 86.8256 174.255 87.2634 174.401 87.2634Z" stroke="#FCE9E4" stroke-width="33"/>
<path d="M193.19 89.4529C193.408 89.578 193.408 89.578 193.19 89.8282C192.827 90.0784 191.155 90.8291 190.21 91.0167C189.846 91.1419 189.119 91.267 188.538 91.3295C187.229 91.5797 187.084 91.6423 186.939 92.2053C186.575 93.2062 185.848 94.0194 184.976 94.3947C184.321 94.7075 182.868 94.7701 182.141 94.5824C180.687 94.0819 179.887 92.3304 180.396 90.3912C180.541 90.0784 180.687 89.6405 180.832 89.5154C181.05 89.2652 181.268 88.9524 181.414 88.7022C181.85 87.889 182.577 87.5137 183.74 87.5762C185.993 87.5762 187.302 88.5771 187.302 90.2661V90.704L187.956 90.6414C188.756 90.5163 189.774 90.2035 191.082 89.7031C192.173 89.2652 192.754 89.2027 193.19 89.4529ZM182.068 90.6414C181.923 90.6414 181.995 92.3304 182.141 92.8934C182.286 93.1436 182.504 93.519 182.65 93.7066C182.94 93.9568 183.013 93.9568 183.376 93.9568C183.667 93.8943 183.885 93.8317 184.103 93.7066C184.54 93.4564 185.048 92.8308 185.339 92.2053L185.557 91.6423L184.976 91.5797C184.031 91.4546 182.795 91.1419 182.431 90.8916C182.286 90.7665 182.068 90.6414 182.068 90.6414ZM182.868 89.2652C182.795 89.578 182.868 89.7031 183.158 90.0159C183.522 90.4538 184.103 90.704 184.758 90.7665C185.557 90.8916 185.63 90.8916 185.703 90.704C185.848 90.4538 185.703 89.3278 185.485 89.015C185.194 88.6397 184.685 88.3269 184.176 88.2643H183.958C183.449 88.2643 182.94 88.7022 182.868 89.2652Z" stroke="#FCE9E4" stroke-width="33"/>
<path d="M202.316 89.3903C202.534 89.7031 201.007 91.0793 199.626 91.83C199.044 92.0802 198.39 92.393 197.736 92.5806C196.718 92.956 196.646 93.0185 196.282 93.519C196.064 93.8943 195.846 94.0819 195.264 94.3322C194.683 94.5824 194.392 94.6449 193.52 94.7075C192.793 94.7075 192.211 94.6449 191.848 94.5824C191.339 94.3947 190.757 93.9568 190.757 93.7692C190.757 93.4564 191.63 93.1436 194.174 92.5181C194.61 92.4555 194.974 92.3304 194.974 92.2678C194.974 91.9551 194.683 91.7049 194.029 91.5172C192.066 90.8916 191.412 90.3286 191.63 89.5154C191.92 88.7648 193.883 87.7013 195.119 87.6388C195.919 87.6388 196.646 87.9515 196.646 88.2643C196.646 88.452 196.5 88.5145 195.919 88.5771C194.683 88.7022 193.084 89.6405 193.084 90.2661C193.084 90.3912 193.447 90.5163 194.029 90.7665C194.61 90.9542 195.337 91.267 195.701 91.5172L196.355 91.9551L197.518 91.5172C198.972 91.0167 200.28 90.3286 200.935 89.7031C201.298 89.3903 201.516 89.2652 201.807 89.2652C202.025 89.2652 202.243 89.3278 202.316 89.3903Z" stroke="#FCE9E4" stroke-width="33"/>
<path d="M35.5 110.414C33.9734 110.269 33.1738 110.051 31.6472 109.542C30.1933 108.96 29.3209 108.524 28.2305 107.724C25.1773 105.326 24.4504 101.327 26.4131 97.9106C27.3582 96.384 29.6117 94.5667 31.9379 93.4035C34.0461 92.3858 37.7535 91.3681 40.5887 91.0773L41.2429 90.9319L41.3156 86.5702C41.461 77.1198 41.6064 69.923 41.6791 67.6695L41.7518 65.3433L41.3883 65.1979C41.1702 65.0525 41.0248 64.9798 41.0248 64.9071C41.0248 64.7617 41.1702 63.744 41.461 62.5808C41.9699 60.1092 41.9699 59.9638 41.6791 60.0365L40.2979 60.2546C38.2624 60.6908 34.0461 61.9993 31.7926 62.9443C24.8138 65.9248 20.016 70.1411 18.9255 74.212C18.6348 75.3025 18.7074 77.0472 19.0709 78.0649C19.7252 79.8823 20.961 80.9 23.2872 81.6996C24.7411 82.1358 25.1773 82.3539 25.1773 82.6447C25.1773 83.0808 22.9238 82.572 21.1064 81.6996C18.5621 80.4638 16.9628 77.7741 17.1809 75.1571C17.3262 73.8486 17.4716 73.267 18.0532 72.0312C20.6702 66.5791 28.3032 61.8539 38.3351 59.3823C41.0248 58.728 43.4238 58.3645 45.6773 58.4372C46.8404 58.4372 48.0762 58.5099 49.3121 58.8007C50.2571 59.0188 52.0745 59.8911 52.8741 60.5454C54.4734 61.7085 55.2004 63.744 54.7642 65.7794C54.2553 68.3237 52.1472 70.9408 48.5124 73.7032L46.9858 74.8663C46.9131 74.8663 47.7128 74.939 48.7305 74.939C50.2571 74.939 50.8387 74.939 52.0745 75.2298C54.1826 75.7386 54.9096 76.0294 57.1631 77.4106C57.9628 77.9195 59.6348 79.5915 60.289 80.5365C60.8706 81.4089 61.4521 82.7901 61.8156 84.0259C62.0337 84.9709 62.0337 85.4798 62.0337 87.2245L62.1064 89.2599L62.5426 89.1872C63.633 89.0418 65.8138 88.2422 67.4858 87.3698L68.5762 86.9337C68.9397 86.7883 69.3032 87.0064 69.3032 87.2972C69.3032 87.5879 68.5036 88.3149 67.6312 88.8237C66.8316 89.3326 64.4326 90.1323 62.8333 90.423L61.8156 90.6411L61.4521 92.095C59.5621 100.091 53.3103 106.416 44.5142 109.324C41.7518 110.269 38.1897 110.705 35.5 110.414ZM26.922 101.763C26.7039 105.326 29.1028 108.088 33.3191 109.106C34.9911 109.542 36.445 109.615 38.6259 109.396C41.0248 109.178 44.2961 108.233 46.6223 107.07C52.8741 103.944 57.3085 99.0737 59.2713 93.1128C59.5621 92.2404 59.7801 91.3681 59.7801 91.2227C59.7801 91.0773 59.7801 91.0046 59.4167 91.0046L58.9805 91.0773C57.7447 91.15 53.8192 91.3681 50.6206 91.4408C47.6401 91.5135 44.6596 91.6589 43.6418 91.8042L43.133 91.8769V93.0401C43.133 95.0755 43.3511 100.164 43.4965 100.746C43.5692 101.255 43.5692 101.327 43.3511 101.473C43.2784 101.545 42.9149 101.618 42.6241 101.618C42.1153 101.545 42.0426 101.473 41.8972 101.255C41.6791 100.746 41.5337 99.2918 41.3883 95.439C41.3156 93.6216 41.1702 92.1677 41.1702 92.095C41.0248 91.9496 36.227 93.0401 34.7004 93.6216C29.9025 95.5117 27.2128 98.3468 26.922 101.763ZM43.0603 90.7865L43.6418 90.7138L45.0231 90.5684C45.3865 90.4957 47.422 90.423 49.4575 90.3503C53.8192 90.205 57.5993 90.0596 59.0532 89.8415C60.0709 89.6961 60.0709 89.6961 60.2163 89.3326C60.289 89.1145 60.289 87.8787 60.3617 86.5702C60.3617 84.3894 60.289 84.0259 60.0709 83.1535C59.1986 80.2457 57.1631 77.9922 54.328 76.8291C52.9468 76.3202 51.3475 76.0294 49.6028 75.9567C47.8582 75.9567 46.1135 76.2475 44.4415 76.7564L43.4238 77.0472L43.2784 79.6642L43.133 86.4975L43.0603 90.7865ZM43.3511 75.4479L43.8599 75.0844C44.1507 74.939 44.9504 74.4301 45.5319 73.994C49.8936 70.9408 52.3652 68.1784 53.1649 65.5613C53.6011 63.962 53.3103 62.2901 52.4379 61.345C51.7837 60.6181 50.1117 59.9638 48.5124 59.7457C48.0035 59.673 47.0585 59.6003 46.1135 59.6003C45.1684 59.6003 44.2961 59.6003 43.9326 59.673L43.4965 59.7457V61.345C43.4965 62.1447 43.4965 65.7067 43.4238 69.1234L43.3511 75.4479ZM80.3852 85.7706C80.676 85.9886 80.676 86.0613 79.5128 87.6606C77.9862 89.6234 76.1689 91.0046 74.1334 91.5135C72.8976 91.8042 71.0075 91.8042 69.9171 91.5135C68.0997 90.9319 67.3001 89.9142 67.4455 88.2422C67.6636 85.9886 69.9171 84.0986 72.0979 84.0259C72.3887 83.9532 72.7522 84.0259 73.043 84.0986C73.4792 84.1713 73.9153 84.3167 74.1334 84.6074C74.5696 84.8982 74.5696 85.0436 74.5696 85.5525C74.5696 87.2245 71.8799 88.9691 69.7717 88.7511L69.1175 88.6057L69.1901 89.1872C69.3355 90.423 69.8444 90.7865 71.7345 90.7865C72.7522 90.7138 73.1884 90.7138 73.8426 90.423C75.2965 89.9142 76.0235 89.4053 77.9862 87.5152C78.9313 86.4975 79.8763 85.6979 79.949 85.6979C80.0944 85.6979 80.2398 85.6979 80.3852 85.7706ZM69.5536 87.806C69.7717 87.9514 70.426 87.806 71.2256 87.4425C72.2433 86.9337 73.3338 85.5525 73.043 85.0436C72.9703 84.9709 72.8249 84.9709 72.6795 84.9709C72.3887 84.9709 71.9526 85.0436 71.5164 85.2617C70.8621 85.6252 69.8444 86.5702 69.5536 87.2245C69.3355 87.5879 69.3355 87.6606 69.5536 87.806ZM95.2974 85.4798C95.8062 85.6252 95.8062 85.9886 95.152 87.0791C94.8612 87.6606 94.4977 88.1695 94.1342 88.7511C93.48 89.5507 91.6626 91.2954 91.1537 91.5135C90.7176 91.8042 89.9906 91.8769 89.4091 91.7316C88.6821 91.5135 88.0278 91.15 87.6644 90.7138C87.2282 90.1323 86.8647 89.2599 86.8647 88.8237C86.8647 88.6057 86.792 88.3876 86.792 88.3876C86.7193 88.3149 86.3559 88.6784 85.9197 89.1145C85.12 89.9869 83.8115 90.8592 82.9392 91.15C81.7034 91.5862 79.9587 91.2227 79.3044 90.423C79.0864 90.0596 79.0137 89.7688 78.941 89.2599C78.8683 87.7333 79.3771 86.2794 80.5403 85.189C81.1218 84.6074 81.4126 84.3894 81.9215 84.244C83.5208 83.8078 85.7016 84.244 85.847 85.0436C85.847 85.3344 85.847 85.3344 85.4108 85.2617L84.3931 85.1163C83.6661 84.9709 82.8665 85.2617 82.2122 85.7706C81.1218 86.7883 80.3949 88.9691 80.7583 90.0596C80.9764 90.4957 81.4126 90.4957 82.3576 89.9869C83.3754 89.478 84.3931 88.6057 85.2654 87.5152C85.9924 86.5702 87.0828 84.7528 87.2282 84.0986C87.3009 83.7351 88.0278 83.7351 88.5367 84.0986C88.9002 84.3894 88.9002 84.3167 88.6094 85.8433C88.2459 87.6606 88.5367 89.9869 89.191 90.5684C89.4817 90.8592 89.5544 90.8592 89.9179 90.7138C90.7903 90.3503 92.3895 88.7511 93.9161 86.5702C94.7158 85.5525 94.9339 85.4071 95.2974 85.4798ZM129.421 110.414C127.895 110.269 127.095 110.051 125.569 109.542C124.115 108.96 123.242 108.524 122.152 107.724C119.099 105.326 118.372 101.327 120.335 97.9106C121.28 96.384 123.533 94.5667 125.859 93.4035C127.968 92.3858 131.675 91.3681 134.51 91.0773L135.164 90.9319L135.237 86.5702C135.382 77.1198 135.528 69.923 135.601 67.6695L135.673 65.3433L135.31 65.1979C135.092 65.0525 134.946 64.9798 134.946 64.9071C134.946 64.7617 135.092 63.744 135.382 62.5808C135.891 60.1092 135.891 59.9638 135.601 60.0365L134.219 60.2546C132.184 60.6908 127.968 61.9993 125.714 62.9443C118.735 65.9248 113.937 70.1411 112.847 74.212C112.556 75.3025 112.629 77.0472 112.992 78.0649C113.647 79.8823 114.882 80.9 117.209 81.6996C118.663 82.1358 119.099 82.3539 119.099 82.6447C119.099 83.0808 116.845 82.572 115.028 81.6996C112.483 80.4638 110.884 77.7741 111.102 75.1571C111.248 73.8486 111.393 73.267 111.975 72.0312C114.592 66.5791 122.225 61.8539 132.257 59.3823C134.946 58.728 137.345 58.3645 139.599 58.4372C140.762 58.4372 141.998 58.5099 143.233 58.8007C144.179 59.0188 145.996 59.8911 146.796 60.5454C148.395 61.7085 149.122 63.744 148.686 65.7794C148.177 68.3237 146.069 70.9408 142.434 73.7032L140.907 74.8663C140.835 74.8663 141.634 74.939 142.652 74.939C144.179 74.939 144.76 74.939 145.996 75.2298C148.104 75.7386 148.831 76.0294 151.085 77.4106C151.884 77.9195 153.556 79.5915 154.21 80.5365C154.792 81.4089 155.374 82.7901 155.737 84.0259C155.955 84.9709 155.955 85.4798 155.955 87.2245L156.028 89.2599L156.464 89.1872C157.554 89.0418 159.735 88.2422 161.407 87.3698L162.498 86.9337C162.861 86.7883 163.225 87.0064 163.225 87.2972C163.225 87.5879 162.425 88.3149 161.553 88.8237C160.753 89.3326 158.354 90.1323 156.755 90.423L155.737 90.6411L155.374 92.095C153.483 100.091 147.232 106.416 138.436 109.324C135.673 110.269 132.111 110.705 129.421 110.414ZM120.843 101.763C120.625 105.326 123.024 108.088 127.241 109.106C128.913 109.542 130.366 109.615 132.547 109.396C134.946 109.178 138.218 108.233 140.544 107.07C146.796 103.944 151.23 99.0737 153.193 93.1128C153.483 92.2404 153.702 91.3681 153.702 91.2227C153.702 91.0773 153.702 91.0046 153.338 91.0046L152.902 91.0773C151.666 91.15 147.741 91.3681 144.542 91.4408C141.562 91.5135 138.581 91.6589 137.563 91.8042L137.054 91.8769V93.0401C137.054 95.0755 137.272 100.164 137.418 100.746C137.491 101.255 137.491 101.327 137.272 101.473C137.2 101.545 136.836 101.618 136.546 101.618C136.037 101.545 135.964 101.473 135.819 101.255C135.601 100.746 135.455 99.2918 135.31 95.439C135.237 93.6216 135.092 92.1677 135.092 92.095C134.946 91.9496 130.148 93.0401 128.622 93.6216C123.824 95.5117 121.134 98.3468 120.843 101.763ZM136.982 90.7865L137.563 90.7138L138.944 90.5684C139.308 90.4957 141.343 90.423 143.379 90.3503C147.741 90.205 151.521 90.0596 152.975 89.8415C153.992 89.6961 153.992 89.6961 154.138 89.3326C154.21 89.1145 154.21 87.8787 154.283 86.5702C154.283 84.3894 154.21 84.0259 153.992 83.1535C153.12 80.2457 151.085 77.9922 148.249 76.8291C146.868 76.3202 145.269 76.0294 143.524 75.9567C141.78 75.9567 140.035 76.2475 138.363 76.7564L137.345 77.0472L137.2 79.6642L137.054 86.4975L136.982 90.7865ZM137.272 75.4479L137.781 75.0844C138.072 74.939 138.872 74.4301 139.453 73.994C143.815 70.9408 146.287 68.1784 147.086 65.5613C147.522 63.962 147.232 62.2901 146.359 61.345C145.705 60.6181 144.033 59.9638 142.434 59.7457C141.925 59.673 140.98 59.6003 140.035 59.6003C139.09 59.6003 138.218 59.6003 137.854 59.673L137.418 59.7457V61.345C137.418 62.1447 137.418 65.7067 137.345 69.1234L137.272 75.4479ZM174.307 85.9886C174.525 86.134 174.525 86.134 174.307 86.4248C173.943 86.7156 172.271 87.5879 171.326 87.806C170.963 87.9514 170.236 88.0968 169.654 88.1695C168.346 88.4603 168.2 88.533 168.055 89.1872C167.691 90.3503 166.964 91.2954 166.092 91.7316C165.438 92.095 163.984 92.1677 163.257 91.9496C161.803 91.3681 161.003 89.3326 161.512 87.0791C161.658 86.7156 161.803 86.2067 161.948 86.0613C162.167 85.7706 162.385 85.4071 162.53 85.1163C162.966 84.1713 163.693 83.7351 164.856 83.8078C167.11 83.8078 168.418 84.9709 168.418 86.9337V87.4425L169.073 87.3698C169.872 87.2245 170.89 86.861 172.198 86.2794C173.289 85.7706 173.87 85.6979 174.307 85.9886ZM163.184 87.3698C163.039 87.3698 163.112 89.3326 163.257 89.9869C163.402 90.2776 163.62 90.7138 163.766 90.9319C164.057 91.2227 164.129 91.2227 164.493 91.2227C164.784 91.15 165.002 91.0773 165.22 90.9319C165.656 90.6411 166.165 89.9142 166.456 89.1872L166.674 88.533L166.092 88.4603C165.147 88.3149 163.911 87.9514 163.548 87.6606C163.402 87.5152 163.184 87.3698 163.184 87.3698ZM163.984 85.7706C163.911 86.134 163.984 86.2794 164.275 86.6429C164.638 87.1518 165.22 87.4425 165.874 87.5152C166.674 87.6606 166.746 87.6606 166.819 87.4425C166.964 87.1518 166.819 85.8433 166.601 85.4798C166.31 85.0436 165.801 84.6801 165.292 84.6074H165.074C164.566 84.6074 164.057 85.1163 163.984 85.7706ZM181.452 85.6979C182.106 85.4798 182.179 85.7706 181.816 86.7883C181.089 88.6784 179.708 90.7865 178.69 91.6589C177.599 92.4585 176.146 92.8947 175.2 92.5312C174.619 92.3131 173.892 91.5862 173.528 90.8592C173.165 89.9869 172.802 88.0241 172.656 85.6252C172.365 81.0454 173.092 73.6305 174.183 70.2865C174.91 68.1057 175.637 67.0152 176.436 67.0152C177.527 67.0152 178.399 67.7422 178.835 68.978C179.344 70.5773 179.126 73.994 178.326 77.1198C177.309 80.8273 175.855 84.462 174.837 85.5525L174.401 85.9886L174.546 87.2245C174.692 88.4603 175.055 90.205 175.346 90.7138C175.637 91.2954 176.218 91.8042 176.582 91.6589C177.454 91.4408 178.981 89.6961 180.362 87.2245C180.943 86.0613 181.234 85.6979 181.452 85.6979ZM174.401 83.4443C174.474 83.4443 174.692 83.0081 174.982 82.4266C177.236 77.1198 178.254 70.5773 177.163 68.4691C177.091 68.3237 177.018 68.251 176.945 68.1784C176.872 68.1784 176.727 68.3237 176.509 68.7599C175.419 70.8681 174.692 74.8663 174.401 80.173C174.255 82.9354 174.255 83.4443 174.401 83.4443ZM193.19 85.9886C193.408 86.134 193.408 86.134 193.19 86.4248C192.827 86.7156 191.155 87.5879 190.21 87.806C189.846 87.9514 189.119 88.0968 188.538 88.1695C187.229 88.4603 187.084 88.533 186.939 89.1872C186.575 90.3503 185.848 91.2954 184.976 91.7316C184.321 92.095 182.868 92.1677 182.141 91.9496C180.687 91.3681 179.887 89.3326 180.396 87.0791C180.541 86.7156 180.687 86.2067 180.832 86.0613C181.05 85.7706 181.268 85.4071 181.414 85.1163C181.85 84.1713 182.577 83.7351 183.74 83.8078C185.993 83.8078 187.302 84.9709 187.302 86.9337V87.4425L187.956 87.3698C188.756 87.2245 189.774 86.861 191.082 86.2794C192.173 85.7706 192.754 85.6979 193.19 85.9886ZM182.068 87.3698C181.923 87.3698 181.995 89.3326 182.141 89.9869C182.286 90.2776 182.504 90.7138 182.65 90.9319C182.94 91.2227 183.013 91.2227 183.376 91.2227C183.667 91.15 183.885 91.0773 184.103 90.9319C184.54 90.6411 185.048 89.9142 185.339 89.1872L185.557 88.533L184.976 88.4603C184.031 88.3149 182.795 87.9514 182.431 87.6606C182.286 87.5152 182.068 87.3698 182.068 87.3698ZM182.868 85.7706C182.795 86.134 182.868 86.2794 183.158 86.6429C183.522 87.1518 184.103 87.4425 184.758 87.5152C185.557 87.6606 185.63 87.6606 185.703 87.4425C185.848 87.1518 185.703 85.8433 185.485 85.4798C185.194 85.0436 184.685 84.6801 184.176 84.6074H183.958C183.449 84.6074 182.94 85.1163 182.868 85.7706ZM202.316 85.9159C202.534 86.2794 201.007 87.8787 199.626 88.7511C199.044 89.0418 198.39 89.4053 197.736 89.6234C196.718 90.0596 196.646 90.1323 196.282 90.7138C196.064 91.15 195.846 91.3681 195.264 91.6589C194.683 91.9496 194.392 92.0223 193.52 92.095C192.793 92.095 192.211 92.0223 191.848 91.9496C191.339 91.7316 190.757 91.2227 190.757 91.0046C190.757 90.6411 191.63 90.2776 194.174 89.5507C194.61 89.478 194.974 89.3326 194.974 89.2599C194.974 88.8964 194.683 88.6057 194.029 88.3876C192.066 87.6606 191.411 87.0064 191.63 86.0613C191.92 85.189 193.883 83.9532 195.119 83.8805C195.919 83.8805 196.646 84.244 196.646 84.6074C196.646 84.8255 196.5 84.8982 195.919 84.9709C194.683 85.1163 193.083 86.2067 193.083 86.9337C193.083 87.0791 193.447 87.2245 194.029 87.5152C194.61 87.7333 195.337 88.0968 195.701 88.3876L196.355 88.8964L197.518 88.3876C198.972 87.806 200.28 87.0064 200.935 86.2794C201.298 85.9159 201.516 85.7706 201.807 85.7706C202.025 85.7706 202.243 85.8433 202.316 85.9159Z" fill="black"/>
</svg>
